# AST/ASF file generated using VICON BodyLanguage
# -----------------------------------------------
:version 1.10
:name VICON
:units
  mass 1.0
  length 0.45
  angle deg
:documentation
   .ast/.asf automatically generated from VICON data using
   VICON BodyBuilder and BodyLanguage model FoxedUp or BRILLIANT.MOD
:root
   order TX TY TZ RX RY RZ
   axis XYZ
   position 0 0 0  
   orientation 0 0 0 
:bonedata
  begin
     id 1 
     name lhipjoint
     direction 0.578396 -0.714046 0.394458 
     length 2.21935 
     axis 0 0 0  XYZ
  end
  begin
     id 2 
     name lfemur
     direction 0.34202 -0.939693 0  
     length 6.39105  
     axis 0 0 20  XYZ
    dof rx ry rz
    limits (-160.0 20.0)
           (-70.0 70.0)
           (-60.0 70.0)
  end
  begin
     id 3 
     name ltibia
     direction 0.34202 -0.939693 0   
     length 6.99037   
     axis 0 0 20   XYZ
    dof rx
    limits (-10.0 170.0)
  end
  begin
     id 4 
     name lfoot
     direction 0.0582372 -0.160005 0.985397   
     length 2.06111   
     axis -90 7.62852e-016 20   XYZ
    dof rx rz
    limits (-45.0 90.0)
           (-70.0 20.0)
  end
  begin
     id 5 
     name ltoes
     direction 1.53556e-011 -4.21875e-011 1   
     length 1.04074   
     axis -90 7.62852e-016 20   XYZ
    dof rx
    limits (-90.0 20.0)
  end
  begin
     id 6 
     name rhipjoint
     direction -0.558179 -0.726269 0.40121   
     length 2.182  
     axis 0 0 0  XYZ 
  end
  begin
     id 7 
     name rfemur
     direction -0.34202 -0.939693 0   
     length 6.51172   
     axis 0 0 -20   XYZ
    dof rx ry rz
    limits (-160.0 20.0)
           (-70.0 70.0)
           (-70.0 60.0)
  end
  begin
     id 8 
     name rtibia
     direction -0.34202 -0.939693 0   
     length 7.02607   
     axis 0 0 -20   XYZ
    dof rx
    limits (-10.0 170.0)
 end
 begin
     id 9 
     name rfoot
     direction -0.0788856 -0.216737 0.973038   
     length 1.96734  
     axis -90 -7.62852e-016 -20   XYZ
    dof rx rz
    limits (-45.0 90.0)
           (-20.0 70.0)
  end
  begin
     id 10 
     name rtoes
     direction -1.53567e-011 -4.21783e-011 1   
     length 0.990825   
     axis -90 -7.62852e-016 -20   XYZ
    dof rx
    limits (-90.0 20.0)
  end
  begin
     id 11 
     name lowerback
     direction 0.00668177 0.999323 -0.0361741   
     length 1.7655   
     axis 0 0 0   XYZ
    dof rx ry rz
    limits (-20.0 45.0)
           (-30.0 30.0)
           (-30.0 30.0)
  end
  begin
     id 12 
     name upperback
     direction -0.00222086 0.99851 0.0545167   
     length 1.74912   
     axis 0 0 0   XYZ
    dof rx ry rz
    limits (-20.0 45.0)
           (-30.0 30.0)
           (-30.0 30.0)
  end
  begin
     id 13 
     name thorax
     direction -0.00733971 0.997496 0.0703443   
     length 1.75715   
     axis 0 0 0   XYZ
    dof rx ry rz
    limits (-20.0 45.0)
           (-30.0 30.0)
           (-30.0 30.0)
  end
  begin
     id 14 
     name lowerneck
     direction 0.0279797 0.994795 0.0979765   
     length 1.46939   
     axis 0 0 0   XYZ
    dof rx ry rz
    limits (-20.0 45.0)
           (-30.0 30.0)
           (-30.0 30.0)
  end
  begin
     id 15 
     name upperneck
     direction 0.00339187 0.976776 -0.214238   
     length 1.48018   
     axis 0 0 0   XYZ
    dof rx ry rz
    limits (-20.0 45.0)
           (-30.0 30.0)
           (-30.0 30.0)
  end
  begin
     id 16
     name head
     direction -0.00263506 0.996603 -0.0823096  
     length 1.4976  
     axis 0 0 0   XYZ
    dof rx ry rz
    limits (-20.0 45.0)
           (-30.0 30.0)
           (-30.0 30.0)
  end
  begin
     id 17 
     name lclavicle
     direction 0.894044 0.44508 -0.0508781  
     length 3.03024  
     axis 0 0 0   XYZ
    dof ry rz
    limits (-20.0 10.0)
           (0.0 20.0)
  end
  begin
     id 18 
     name lhumerus
     direction 1 -4.48961e-011 -2.39475e-018   
     length 4.4661   
     axis 180 -30 -90   XYZ
    dof rx ry rz
    limits (-60.0 90.0)
           (-90.0 90.0)
           (-90.0 90.0)
  end
  begin
     id 19
     name lradius
     direction 1 -4.48961e-011 9.29328e-028   
     length 3.41414   
     axis 180 -30 -90   XYZ
    dof rx
    limits (-10.0 170.0)
  end
  begin
     id 20
     name lwrist
     direction 1 -4.48985e-011 1.53461e-026   
     length 1.70707   
     axis -1.09697e-014 90 90   XYZ
    dof ry
    limits (-180.0 0.0)
 end
  begin
     id 21 
     name lhand
     direction 1 -4.48966e-011 3.06923e-026   
     length 0.328298   
     axis -1.95843e-014 90 90   XYZ
    dof rx rz
    limits (-90.0 90.0)
           (-45.0 45.0)
  end
  begin
     id 22 
     name lfingers
     direction 1 -4.48893e-011 6.13845e-026   
     length 0.264682   
     axis -3.91686e-014 90 90   XYZ
    dof rx
    limits (0.0 90.0)
  end
  begin
     id 23
     name lthumb
     direction 0.707107 -6.34876e-011 0.707107   
     length 0.380032   
     axis -90 45 2.85299e-015   XYZ
    dof rx rz
    limits (-45.0 45.0)
           (-45.0 45.0)
  end
  begin
     id 24 
     name rclavicle
     direction -0.936955 0.347862 -0.0332887   
     length 3.26927  
     axis 0 0 0   XYZ 
    dof ry rz
    limits (-10.0 20.0)
           (-20.0 0.0)
  end
  begin
     id 25 
     name rhumerus
     direction -1 -4.4896e-011 1.78637e-018  
     length 4.40431   
     axis 180 30 90   XYZ
    dof rx ry rz
    limits (-90.0 60.0)
           (-90.0 90.0)
           (-90.0 90.0)
  end
  begin
     id 26 
     name rradius
     direction -1 -4.48955e-011 9.34036e-027   
     length 3.04688   
     axis 180 30 90   XYZ
    dof rx
    limits (-10.0 170.0)
  end
  begin
     id 27 
     name rwrist
     direction -1 -4.49011e-011 1.53461e-026   
     length 1.52344   
     axis -1.09697e-014 -90 -90   XYZ
    dof ry
    limits (-180.0 0.0)
  end
  begin
     id 28
     name rhand
     direction -1 -4.48834e-011 3.06923e-026   
     length 0.500489   
     axis -1.95843e-014 -90 -90   XYZ
    dof rx rz
    limits (-90.0 90.0)
           (-45.0 45.0)
  end
  begin
     id 29
     name rfingers
     direction -1 -4.48967e-011 6.13845e-026   
     length 0.403507   
     axis -3.91686e-014 -90 -90   XYZ
    dof rx
    limits (0.0 90.0)
  end
  begin
     id 30
     name rthumb
     direction -0.707107 -6.34826e-011 0.707107   
     length 0.579358   
     axis -90 -45 -2.85299e-015   XYZ
    dof rx rz
    limits (-45.0 45.0)
           (-45.0 45.0)
  end
:hierarchy
  begin
    root lhipjoint rhipjoint lowerback
    lhipjoint lfemur
    lfemur ltibia
    ltibia lfoot
    lfoot ltoes
    rhipjoint rfemur
    rfemur rtibia
    rtibia rfoot
    rfoot rtoes
    lowerback upperback
    upperback thorax
    thorax lowerneck lclavicle rclavicle
    lowerneck upperneck
    upperneck head
    lclavicle lhumerus
    lhumerus lradius
    lradius lwrist
    lwrist lhand lthumb
    lhand lfingers
    rclavicle rhumerus
    rhumerus rradius
    rradius rwrist
    rwrist rhand rthumb
    rhand rfingers
  end

#!OML:ASF H:\IndianDance\Patient Classification 1\Patient 1\Session 1\dancer.ASF
:FULLY-SPECIFIED
:DEGREES
1319
root 22.6449 14.8813 -1.91297 546.11 11.3487 -179.079
lowerback 1.43467 10.0256 8.57088
upperback -7.13098 14.1744 -4.19245
thorax -5.27124 6.72059 -9.60331
lowerneck -16.0675 10.0368 7.25577
upperneck 26.4317 12.2482 -2.62193
head 11.9676 5.58229 -0.35305
rclavicle 2.03854e-013 7.95139e-015
rhumerus -1.36221 52.5182 -67.3409
rradius 83.3363
rwrist 17.3023
rhand -38.7466 31.936
rfingers 7.12502
rthumb -11.7593 2.28613
lclavicle 2.03854e-013 7.95139e-015
lhumerus 19.9941 -20.9652 16.7561
lradius 79.5501
lwrist -3.91701
lhand -57.0511 -66.2197
lfingers 7.12502
lthumb -29.3403 -398.515
rfemur -20.8281 -17.6517 19.2553
rtibia 53.7279
rfoot -22.6451 -16.5537
rtoes -6.40746
lfemur -34.854 -2.14551 -19.9545
ltibia 51.7395
lfoot -17.783 1.18083
ltoes -14.2854
1320
root 22.683 14.8522 -1.88824 546.334 10.0774 -178.912
lowerback 1.49254 10.122 8.93325
upperback -7.16539 14.3344 -4.30579
thorax -5.20019 6.78891 -9.91347
lowerneck -16.0698 10.1399 7.27836
upperneck 26.5169 12.3724 -2.5269
head 12.0029 5.65431 -0.298369
rclavicle -5.08889e-014 3.26007e-014
rhumerus -1.84042 52.2582 -68.5982
rradius 82.617
rwrist 16.1847
rhand -41.238 37.1473
rfingers 7.12502
rthumb -14.161 7.64989
lclavicle -5.08889e-014 3.26007e-014
lhumerus 18.8226 -21.562 19.1513
lradius 78.8746
lwrist -1.07326
lhand -57.267 -61.0079
lfingers 7.12502
lthumb -29.5464 -393.339
rfemur -21.7224 -18.8637 19.3649
rtibia 55.2344
rfoot -22.0382 -15.1722
rtoes -7.83533
lfemur -34.9945 -0.307774 -20.8319
ltibia 52.361
lfoot -17.9952 3.89658
ltoes -11.4181
1321
root 22.7204 14.8183 -1.86544 546.52 8.89139 -178.836
lowerback 1.56471 10.2209 9.1683
upperback -7.20344 14.4935 -4.43389
thorax -5.16318 6.86083 -10.1782
lowerneck -16.0661 10.2409 7.31121
upperneck 26.601 12.4856 -2.41546
head 12.0355 5.72452 -0.24134
rclavicle -4.96962e-016 -4.6118e-014
rhumerus -2.37485 52.0316 -69.9349
rradius 81.9696
rwrist 14.9439
rhand -43.2165 42.1003
rfingers 7.12502
rthumb -16.0669 12.7464
lclavicle -4.96962e-016 -4.6118e-014
lhumerus 17.6896 -22.1156 21.4957
lradius 78.2104
lwrist 2.02013
lhand -57.3892 -54.8026
lfingers 7.12502
lthumb -29.663 -387.155
rfemur -22.7269 -20.1505 19.3609
rtibia 56.9329
rfoot -21.4386 -13.6526
rtoes -8.73802
lfemur -35.0342 1.40448 -21.6899
ltibia 52.8054
lfoot -18.6422 5.67339
ltoes -7.96674
1322
root 22.7571 14.7807 -1.8444 546.678 7.77147 -178.857
lowerback 1.65623 10.3132 9.27084
upperback -7.24803 14.6403 -4.57958
thorax -5.16998 6.92998 -10.4007
lowerneck -16.0596 10.3382 7.34709
upperneck 26.6853 12.5859 -2.28349
head 12.0656 5.79184 -0.179511
rclavicle -2.67365e-014 -3.02153e-014
rhumerus -2.96696 51.833 -71.3608
rradius 81.3862
rwrist 13.6227
rhand -44.7508 46.5283
rfingers 7.12502
rthumb -17.5439 17.2999
lclavicle -2.67365e-014 -3.02153e-014
lhumerus 16.6125 -22.6351 23.7499
lradius 77.5724
lwrist 5.367
lhand -57.3462 -47.9364
lfingers 7.12502
lthumb -29.622 -380.281
rfemur -23.834 -21.5146 19.2447
rtibia 58.7913
rfoot -20.807 -12.0472
rtoes -9.11348
lfemur -35.0142 2.9036 -22.4927
ltibia 53.0766
lfoot -19.4976 6.71558
ltoes -4.78341
1323
root 22.7927 14.7402 -1.82457 546.812 6.69975 -178.971
lowerback 1.77966 10.389 9.27042
upperback -7.29893 14.7638 -4.75161
thorax -5.22202 6.98897 -10.6091
lowerneck -16.0403 10.4268 7.37131
upperneck 26.7542 12.6666 -2.11679
head 12.0823 5.85445 -0.107556
rclavicle -1.30303e-013 -7.55382e-014
rhumerus -3.61224 51.6504 -72.8943
rradius 80.8528
rwrist 12.2412
rhand -45.8954 50.2226
rfingers 7.12502
rthumb -18.6451 21.0961
lclavicle -1.30303e-013 -7.55382e-014
lhumerus 15.6093 -23.1209 25.876
lradius 76.9894
lwrist 8.98324
lhand -57.1134 -40.4646
lfingers 7.12502
lthumb -29.3997 -372.77
rfemur -25.0257 -22.9457 19.0231
rtibia 60.7699
rfoot -20.1312 -10.3852
rtoes -8.83469
lfemur -34.9875 4.16751 -23.2212
ltibia 53.2204
lfoot -20.3933 7.10343
ltoes -2.20492
1324
root 22.8272 14.6973 -1.80505 546.925 5.65542 -179.164
lowerback 1.9592 10.441 9.16855
upperback -7.36491 14.8575 -4.93576
thorax -5.34821 7.03221 -10.7979
lowerneck -15.9947 10.5061 7.38295
upperneck 26.8155 12.7296 -1.92394
head 12.0867 5.91153 -0.0289065
rclavicle 1.04561e-013 1.66979e-014
rhumerus -4.34265 51.4775 -74.5481
rradius 80.3558
rwrist 10.8131
rhand -46.7253 53.0468
rfingers 7.12502
rthumb -19.4432 23.9989
lclavicle 1.04561e-013 1.66979e-014
lhumerus 14.6824 -23.5883 27.8829
lradius 76.4574
lwrist 12.8174
lhand -56.6696 -32.5527
lfingers 7.12502
lthumb -28.9759 -364.785
rfemur -26.2777 -24.4171 18.7124
rtibia 62.826
rfoot -19.4089 -8.70807
rtoes -7.92646
lfemur -35.0177 5.16858 -23.8573
ltibia 53.3083
lfoot -21.2008 6.99616
ltoes -0.368448
1325
root 22.8608 14.6525 -1.78467 547.026 4.62004 -179.431
lowerback 2.18524 10.4662 9.01283
upperback -7.43084 14.9161 -5.15388
thorax -5.51208 7.05746 -11.0098
lowerneck -15.9283 10.5691 7.38995
upperneck 26.8421 12.7661 -1.71459
head 12.0702 5.95994 0.0499646
rclavicle 1.0625e-013 2.78299e-014
rhumerus -5.10575 51.2782 -76.3089
rradius 79.8735
rwrist 9.31109
rhand -47.3776 55.0263
rfingers 7.12502
rthumb -20.0703 26.043
lclavicle 1.0625e-013 2.78299e-014
lhumerus 13.876 -23.9669 29.769
lradius 75.9101
lwrist 16.7283
lhand -55.9059 -24.8813
lfingers 7.12502
lthumb -28.2463 -356.99
rfemur -27.5757 -25.8939 18.3211
rtibia 64.918
rfoot -18.6514 -7.05397
rtoes -6.45276
lfemur -35.1715 5.89361 -24.4097
ltibia 53.4244
lfoot -21.8476 6.57017
ltoes 0.721686
